# xmcd
#
# Track frame offsets:
#	150
#	18831
#	44219
#	66681
#	88256
#	114281
#	133066
#	157315
#	179930
#	199899
#	222134
#	246859
#
# Disc length: 3576 seconds
#
# Revision: 0
# Processed by: cddbd v1.5.2PL0 Copyright (c) Steve Scherf et al.
# Submitted via: audiograbber 1.83.01
#
DISCID=c30df60c
DTITLE=Ha Vy - Gio Bac
DYEAR=1900
DGENRE=
TTITLE0=Loi To Tinh De Thuong
TTITLE1=Gio Bac
TTITLE2=Cuoc TinH Van Dam
TTITLE3=Toi Ngan Nam Doi
TTITLE4=Gian Hon
TTITLE5=Ngay Mai Troi Lai Sang
TTITLE6=Anh Thi Khong
TTITLE7=Trau Oi
TTITLE8=Bon Mat Anh Yeu
TTITLE9=Bot Mua
TTITLE10=Gio Bac (Karaoke)
TTITLE11=Toi Ngan Nam Doi (Karaoke)
EXTD=
EXTT0=
EXTT1=
EXTT2=
EXTT3=
EXTT4=
EXTT5=
EXTT6=
EXTT7=
EXTT8=
EXTT9=
EXTT10=
EXTT11=
PLAYORDER=
